<svg xmlns="http://www.w3.org/2000/svg" viewBox="0 0 435.29 454.9"><defs><style>.cls-1{fill:#eef6fd;}.cls-2{fill:#dee6ee;}.cls-3{fill:#d2a96f;}.cls-4{fill:#e7c798;}.cls-5{fill:#b39261;}.cls-6{fill:#98c9db;}.cls-10,.cls-7{fill:#fff;}.cls-8{fill:#62b1c0;}.cls-9{fill:#4c8690;}.cls-10{font-size:10.66px;font-family:BebasNeue-Bold, BebasNeue Bold;font-weight:700;}.cls-11{letter-spacing:-0.01em;}.cls-12{fill:#b5d9f3;}.cls-13{fill:#25474b;}.cls-14{fill:#41737c;}.cls-15{fill:#4b2019;}.cls-16{fill:#e1a792;}.cls-17{fill:#d57e2a;}.cls-18{fill:#d06966;}.cls-19{fill:#e8bdac;}.cls-20{fill:#2c3b67;}.cls-21{fill:#f6e2bb;}.cls-22{fill:#e0a28a;}.cls-23{fill:#e2a548;}.cls-24{fill:#9c6139;}.cls-25{fill:#c9d8e5;}.cls-26{fill:#a05450;}.cls-27{fill:#2b4c85;}.cls-28{fill:none;stroke:#2b4c85;stroke-linecap:round;stroke-linejoin:round;stroke-width:0;}.cls-29{fill:#325a61;}.cls-30{fill:#4f8b96;}.cls-31{fill:#d7856e;}.cls-32{fill:#7b322e;}</style></defs><title>donasi</title><g id="Layer_2" data-name="Layer 2"><g id="OBJECTS"><circle class="cls-1" cx="214.47" cy="255.21" r="149.96"/><rect class="cls-2" x="120.46" y="443.9" width="72.46" height="11.01" rx="4.82" ry="4.82"/><rect class="cls-2" x="246.57" y="443.9" width="72.46" height="11.01" rx="4.82" ry="4.82"/><rect class="cls-2" x="336" y="443.9" width="99.29" height="11.01" rx="4.82" ry="4.82"/><rect class="cls-2" x="1.68" y="443.9" width="99.29" height="11.01" rx="4.82" ry="4.82"/><rect class="cls-3" x="32.71" y="391.24" width="62.98" height="58.39"/><rect class="cls-4" x="7.64" y="391.24" width="62.98" height="58.39"/><polygon class="cls-5" points="70.62 391.24 32.71 391.24 7.64 391.24 7.64 393.38 32.71 393.38 70.62 393.38 95.69 393.38 95.69 391.24 70.62 391.24"/><rect class="cls-3" x="367.8" y="391.24" width="62.98" height="58.39"/><rect class="cls-4" x="342.73" y="391.24" width="62.98" height="58.39"/><polygon class="cls-5" points="405.71 391.24 367.8 391.24 342.73 391.24 342.73 393.38 367.8 393.38 405.71 393.38 430.78 393.38 430.78 391.24 405.71 391.24"/><rect class="cls-3" x="25.07" y="332.84" width="62.98" height="58.39"/><rect class="cls-4" y="332.84" width="62.98" height="58.39"/><polygon class="cls-5" points="62.98 332.84 25.07 332.84 0 332.84 0 334.98 25.07 334.98 62.98 334.98 88.05 334.98 88.05 332.84 62.98 332.84"/><path class="cls-6" d="M127.23,91.47c-1-1.82-2-3.64-3-5.45a46.31,46.31,0,1,0-7.34,9.26l1.11.66,3.1,1.87c2.08,1.24,4.2,2.4,6.3,3.6a2.08,2.08,0,0,0,3.11-1.78,10.57,10.57,0,0,0-1.35-4.36C128.6,94,127.9,92.73,127.23,91.47Z"/><path class="cls-7" d="M110.37,75a76,76,0,0,1-5-18.26c-1.67-10.91-2.93-17.41-8.39-16.57-3.67.56-5,8.6-3.57,16.36,0,0-12.17-22.24-15.31-25.39s-7.77,1.47-6.3,4.62S83.93,58.46,83.93,58.46,68.4,42.09,64.42,40.21s-7.56,5.24-5.25,7.34S76,63.29,76,63.29s-14.27-6.51-17.84-7.77-5.24,6.3-2.73,7.77,17.84,7.34,17.84,7.34-9.65.63-12.8,1.47-.84,6.72,1.89,6.72,12,2.3,16.79,4,9.44,9.66,15.1,9.66,13.85-9,13.85-9Z"/><path class="cls-8" d="M91.7,91.83c-1,2.69,2.93,6.08,5.45,5.24s16.58-13.64,18-16.37-2.94-6.5-4.83-5.66S92.74,89.1,91.7,91.83Z"/><path class="cls-6" d="M258,45.84a45.85,45.85,0,1,0-53,45.3c-.28.67-.56,1.35-.83,2-.42,1-.82,2-1.23,3A16.74,16.74,0,0,0,201.93,99a2.78,2.78,0,0,0,1.22,3.14c1.33.74,2.58-.08,3.64-.85,1.76-1.29,3.52-2.6,5.24-4,.68-.53,1.34-1.08,2-1.64.51-.35,1-.75,1.43-1.08l3.19-2.41c.53-.41,1.07-.82,1.59-1.24A45.84,45.84,0,0,0,258,45.84Z"/><rect class="cls-7" x="197.7" y="7.67" width="12.24" height="18.03" rx="2.84" ry="2.84" transform="translate(1.87 48.88) rotate(-13.74)"/><rect class="cls-8" x="197.18" y="17.41" width="18.03" height="18.03" rx="2.84" ry="2.84" transform="translate(-0.38 49.72) rotate(-13.74)"/><rect class="cls-7" x="190.85" y="24.52" width="43.05" height="54.35" rx="6.25" ry="6.25" transform="translate(-6.2 51.91) rotate(-13.74)"/><rect class="cls-6" x="194.21" y="40.55" width="36.33" height="22.29" rx="4.05" ry="4.05" transform="translate(-6.2 51.91) rotate(-13.74)"/><path class="cls-9" d="M204,11.07a1.44,1.44,0,0,0-.37-.63l-.29-.22a1.39,1.39,0,0,0-.72-.2,1,1,0,0,0-.55.13,1,1,0,0,0-.46.29,1.08,1.08,0,0,0-.3.46,1.06,1.06,0,0,0-.12.55l.05.38a1.34,1.34,0,0,0,.37.63l.29.23a1.39,1.39,0,0,0,.72.19,1,1,0,0,0,.55-.12,1.08,1.08,0,0,0,.46-.3,1,1,0,0,0,.3-.46,1,1,0,0,0,.12-.55C204,11.33,204,11.2,204,11.07Z"/><text class="cls-10" transform="translate(203.35 53.07) rotate(-13.55)">hand</text><text class="cls-10" transform="translate(197.9 63.37) rotate(-13.55)">saniti<tspan class="cls-11" x="23.79" y="0">z</tspan><tspan x="28.27" y="0">er</tspan></text><path class="cls-12" d="M220,23.72a5.22,5.22,0,0,0-2.88.36c-.73.2-1.45.39-2.17.64a12.45,12.45,0,0,0-2.31,1.08,4.24,4.24,0,0,0-1,.86c-.33.38-.64,1.08-.15,1.49a3.47,3.47,0,0,0,2.4.35l2-.1a16.78,16.78,0,0,0,2.43-.29,3.72,3.72,0,0,0,2.77-1.56A2,2,0,0,0,220,23.72Z"/><path class="cls-12" d="M226.69,24.2h0c-.06-.14-.12-.27-.17-.41a2.39,2.39,0,0,0-.28-.35.65.65,0,0,0-.18-.15,1,1,0,0,0-.38-.22,1.22,1.22,0,0,0-.31-.1l-.14,0h-.06l-.47-.06h0l-.47.06h-.1L224,23l.1,0a1.5,1.5,0,0,0-.59.21,3.07,3.07,0,0,0-.36.27l0,0-.25.33a1.25,1.25,0,0,0-.19.59,1,1,0,0,0,0,.42,1.25,1.25,0,0,0,.19.59.16.16,0,0,1,0,.07,1.32,1.32,0,0,0,.44.47l.18.14a3.93,3.93,0,0,0,.43.18l.25.08h0l.47.07h.06l.14,0,.34,0a1.06,1.06,0,0,0,.47-.13.86.86,0,0,0,.38-.22.7.7,0,0,0,.19-.15l.27-.35.17-.4v0l.06-.44Z"/><path class="cls-9" d="M199.42,25a15,15,0,0,0-.47-2.09,8.71,8.71,0,0,0-.48-1.23,2.35,2.35,0,0,0-.71-1,.35.35,0,0,0-.5.19,2.76,2.76,0,0,0,0,1.18c.06.41.12.82.19,1.22.15.78.29,1.56.43,2.34a.86.86,0,0,0,1,.56.9.9,0,0,0,.58-.44A.73.73,0,0,0,199.42,25Z"/><path class="cls-9" d="M202.72,24.12a16.76,16.76,0,0,0-.47-2.1,8.59,8.59,0,0,0-.48-1.22,2.4,2.4,0,0,0-.72-1,.34.34,0,0,0-.49.19,2.48,2.48,0,0,0,0,1.18c.05.41.11.81.19,1.22.15.78.28,1.56.43,2.34a.89.89,0,0,0,1.61.11A.71.71,0,0,0,202.72,24.12Z"/><path class="cls-9" d="M206,23.21a18.74,18.74,0,0,0-.47-2.1,10.8,10.8,0,0,0-.48-1.23,2.54,2.54,0,0,0-.72-1,.35.35,0,0,0-.5.2,2.61,2.61,0,0,0,0,1.18c0,.41.11.81.19,1.22.15.78.28,1.56.43,2.34a.88.88,0,0,0,1.6.11A.71.71,0,0,0,206,23.21Z"/><path class="cls-9" d="M209.31,22.29a15,15,0,0,0-.47-2.09,7.65,7.65,0,0,0-.48-1.23,2.35,2.35,0,0,0-.71-1,.36.36,0,0,0-.5.19,2.61,2.61,0,0,0,0,1.18c.05.41.11.82.19,1.22l.42,2.34a.86.86,0,0,0,1,.56.87.87,0,0,0,.58-.44A.73.73,0,0,0,209.31,22.29Z"/><path class="cls-9" d="M212.61,21.38a15.16,15.16,0,0,0-.47-2.1,9.08,9.08,0,0,0-.48-1.22,2.31,2.31,0,0,0-.72-1,.34.34,0,0,0-.49.19,2.76,2.76,0,0,0,0,1.18c0,.41.12.82.19,1.22.15.78.29,1.56.43,2.34a.89.89,0,0,0,1.61.11A.71.71,0,0,0,212.61,21.38Z"/><path class="cls-13" d="M260,437.34s-8.26,1.45-10.25,4.36-.76,7.33,2,7.49,22.63.61,24.92.3,2.75-9.93,1.68-12.15-9.48-6.5-10.24-6S260,437.34,260,437.34Z"/><path class="cls-13" d="M287.39,437.34s-8.26,1.45-10.24,4.36-.77,7.33,2,7.49,22.63.61,24.92.3,2.75-9.93,1.68-12.15-9.48-6.5-10.24-6S287.39,437.34,287.39,437.34Z"/><path class="cls-14" d="M317.43,299.07s1.3,34-.69,59.85-10.69,73.68-11,78.42c0,0-13.53,3.67-18.34,0,0,0-7.34-84.15-8.49-92.41,0,0,0,88.51-.45,91.95,0,0-13.38,4.59-18.42.46,0,0-11.85-56.64-13.69-80.94s.23-60.08.23-60.08Z"/><path class="cls-8" d="M268.59,198.33c-7,1.38-14.07,5.2-17.74,10.55s-7,31.49-8.25,33.63-20.18.92-20.18.92l-.92,14.67s15.29,4.74,24.31,4.89c0,0,0,25.53-1.84,35.62,0,0,11.32,8.72,36.39,8.26s39-6.58,39-6.58-6-40.51-7.19-51.05,1.68-29.51.92-29.35-3.52-13.3-3.52-13.3c-9.17-5.51-9.63-4.59-15.89-7.34s-15-2.9-16.05-2.45S268.59,198.33,268.59,198.33Z"/><path class="cls-15" d="M261.94,175.56s-9.08-5-9.08-21.9,3.89-25.93,11.82-26.94c0,0,8.93-7.06,20.46-5.91s13,5.48,11.67,8.07c0,0,12.25.86,14.69,6.05s.44,8.07.44,8.07a8.48,8.48,0,0,1,4.32,6.77,8.67,8.67,0,0,1-2.45,7.06S319,180,296.38,185.36,261.94,175.56,261.94,175.56Z"/><path class="cls-16" d="M273.31,184.12a55.55,55.55,0,0,1-.82,9.63,6.54,6.54,0,0,1-3.9,4.58s3.09,7,12.37,6.88,12.7-6,12.7-6-6.68-2.45-5.21-17l-12.21.61Z"/><circle class="cls-17" cx="138.97" cy="124.79" r="12.46"/><path class="cls-17" d="M144.92,123.82c-30.32,0-31.29,26.59-31.29,35.17s-4.15,15-3,20.36,12.87,18.55,35.16,16.2,30.74-12.33,30.88-16.9-2.35-14.81-2.21-25.47S167.22,123.82,144.92,123.82Z"/><path class="cls-18" d="M137.58,440.47c-1.38,1.68-.92,6.27.15,7.65s17.12.45,19.42.45c3.36,0,1.53-6.26-.46-7.18s-9.94-1.53-9.94-1.53Z"/><path class="cls-19" d="M133.76,421.36s2.6,16.06,3.82,19.11,8.41,1.38,9.17-.61.46-20.64.46-20.64Z"/><path class="cls-18" d="M164.48,440.47c-1.37,1.68-.91,6.27.16,7.65s17.11.45,19.41.45c3.36,0,1.53-6.26-.46-7.18s-9.93-1.53-9.93-1.53Z"/><path class="cls-19" d="M160.66,421.36s2.6,16.06,3.82,19.11,8.41,1.38,9.18-.61.45-20.64.45-20.64Z"/><path class="cls-20" d="M118.93,293.11a302.67,302.67,0,0,0-.31,36.69c1.09,19.61,12.33,89.34,13.76,92.63s14.83.31,16.05-.91,1.38-63,3.52-73.68c0,0,6.42,71.54,8,73.68s13.6,1.22,15.13-1.23,8.1-108.53,6.88-128.4c0,0-36.38-7.65-38.22-7.65S118.93,293.11,118.93,293.11Z"/><path class="cls-18" d="M122.9,201.24a50.12,50.12,0,0,1,9.71-4s13.38,1.23,12.92.92l11.85.46s10.93,4,14.14,6.88,9.17,18.95,9.47,25.68-1.37,40.05-1.83,40.36,2.45,18.34,4.28,23.54c0,0-8.87,5.35-33.94,5.35s-32.56-6.88-32.56-6.88,6.88-24.61,6.88-37.3c0,0-3.36-31.34-4-31.19s-.92-16.2-.92-16.2Z"/><polygon class="cls-21" points="148.43 224.47 204.08 220.04 224.87 227.22 175.19 236.7 148.43 224.47"/><polygon class="cls-3" points="175.95 231.96 148.43 224.47 148.43 270.29 175.95 278.43 175.95 231.96"/><polygon class="cls-4" points="175.95 231.96 175.95 278.43 224.87 273.24 224.87 227.22 175.95 231.96"/><path class="cls-19" d="M158.37,248.47a24.09,24.09,0,0,0,5.5-4.58c2.75-3.06,3.52-5.81,5.35-5s1.07,3.21.31,5.81c0,0,6.27-3.82,8.1-4.59a1.71,1.71,0,0,1,2.29,2.3s2-.61,2.76.76-.77,2.6-.77,2.6a2.87,2.87,0,0,1,.31,3.52,2.9,2.9,0,0,1-.46,3.21c-1.38,1.37-13.76,5.35-19.87,4.89s-5.35-6-5.35-6Z"/><path class="cls-16" d="M263.76,266.56a26.53,26.53,0,0,1-6.11-5.1c-3.06-3.4-3.91-6.45-5.95-5.6s-1.19,3.56-.34,6.45c0,0-7-4.25-9-5.09a1.89,1.89,0,0,0-2.55,2.54s-2.21-.68-3.06.85.85,2.89.85,2.89a3.18,3.18,0,0,0-.34,3.91,3.22,3.22,0,0,0,.51,3.57c1.53,1.52,15.29,5.94,22.09,5.43s5.94-6.62,5.94-6.62Z"/><path class="cls-19" d="M137.54,182.47a36.32,36.32,0,0,1-.57,9.06,10.44,10.44,0,0,1-4.36,5.73s4.82,9.17,13.53,8.26,11.24-6.88,11.24-6.88-6-3.21-4.59-14.68c0,0-8.48-5-9.4-4.58S137.54,182.47,137.54,182.47Z"/><path class="cls-18" d="M125,220.35s-1.52,18,3.37,23.84,26.14,4.59,30.57,3.52c0,0,3.52,6.72,3.67,11.16,0,0-16.82,8.71-32.1,5.65S108,251.81,106.55,243s2.75-29.5,5-33.78,11.31-7.95,11.31-7.95S125.08,213.74,125,220.35Z"/><path class="cls-19" d="M226.09,237.62c-3.68-.07-5.81-.15-7.34.3s-1.68,2-1.07,2.45c0,0-1.78,1.35-1.37,2.45a2.88,2.88,0,0,0,1.37,1.53s-1,2.92,0,3.36a1.53,1.53,0,0,0,1.22,1.83c1.57.43,4.13,1.23,6.88.16S231.48,237.72,226.09,237.62Z"/><path class="cls-8" d="M306.19,228.45S300,249.94,294.88,257c-8.1,11.16-33.17,7.34-33.17,7.34s-2.91,11-1.68,15.13c0,0,29.35,7.65,45.24-3.51s18-35.61,18.35-42.8c.61-11.93-6.42-22.78-14.07-26.6Z"/><path class="cls-22" d="M152.79,184s-8.48-5-9.4-4.58-5.85,3.09-5.85,3.09a36.32,36.32,0,0,1-.57,9.06,8.26,8.26,0,0,1-1,2.36,20.73,20.73,0,0,0,5.39-.15,28.26,28.26,0,0,0,7.36-1.64,12.25,12.25,0,0,0,4-2.59A24.91,24.91,0,0,1,152.79,184Z"/><path class="cls-19" d="M127.41,160.38s-6.23-1.66-6.65,3.94,4.16,6.65,6.44,5.82c0,0,6.16,21,23,18.76s16.34-26.31,15.51-32.4c0,0-6.09-11.08-10.8-14.68C155,141.82,137.79,159.27,127.41,160.38Z"/><path class="cls-22" d="M127,163.76a3.78,3.78,0,0,0-.74-1.47,1.94,1.94,0,0,0-3,.46.35.35,0,0,0,.47.48c.41-.25,1-.71,1.46-.48a1,1,0,0,1,.46.6,5.08,5.08,0,0,1,.19.84.92.92,0,0,0-.4.08,1.94,1.94,0,0,0-.69.73,2.54,2.54,0,0,0-.37.84,1.59,1.59,0,0,0,.66,1.68,1.27,1.27,0,0,0,1.68-.32,3,3,0,0,0,.5-1.63A4.8,4.8,0,0,0,127,163.76Z"/><path class="cls-23" d="M172,158.31c-.13,0-.32-.23-.45-.31a4.4,4.4,0,0,0-.79-.29,8,8,0,0,1-1.3-.6,13.37,13.37,0,0,1-2.4-1.7,29.2,29.2,0,0,1-4-4.49c-1.28-1.71-2.37-3.57-3.64-5.3-.62-.84-1.26-1.67-2-2.45a6,6,0,0,0-1.55-1.47.79.79,0,0,0-.14-.23c-.48-.51-1.17-.07-1.55.28q-1.62,1.5-3.27,2.95-3.28,2.93-6.7,5.7a77.45,77.45,0,0,1-6.6,5,25.86,25.86,0,0,1-8,3.69,15.33,15.33,0,0,1-4.47.43,22,22,0,0,1-4.39-.92.17.17,0,0,0-.13.32c2,1.45,4.87,1.73,7.26,1.61a19.67,19.67,0,0,0,7.56-2,39.25,39.25,0,0,0,6.81-4.37c2.27-1.75,4.49-3.57,6.68-5.43s4.5-3.79,6.59-5.83a1.61,1.61,0,0,0,.24-.28,2.43,2.43,0,0,1,.2.25c.38.46.77.92,1.13,1.4.69.91,1.32,1.87,1.92,2.84,1.15,1.85,2.22,3.75,3.47,5.52a22.05,22.05,0,0,0,4.13,4.6,14.34,14.34,0,0,0,2.66,1.71,4.23,4.23,0,0,0,1.64.54,1.43,1.43,0,0,0,.76-.21c.17-.12.26-.32.44-.41A.29.29,0,0,0,172,158.31Z"/><path class="cls-23" d="M118.54,162c-.58.28-.56,1.51-.61,2a19.07,19.07,0,0,1-.32,3.11,19.56,19.56,0,0,1-1,2.86,17.59,17.59,0,0,0-1.27,5.63,16.78,16.78,0,0,0,.1,2.92,4.06,4.06,0,0,0,.86,2.51.28.28,0,0,0,.46-.12,5.86,5.86,0,0,0-.09-2.28,18.58,18.58,0,0,1-.14-2.24,16.48,16.48,0,0,1,.77-4.83,28.2,28.2,0,0,0,1.45-4.45,17.52,17.52,0,0,0,.1-2.4c0-.39,0-.78,0-1.17s0-.46,0-.7l0-.22a.25.25,0,0,0,0-.24s.06,0,.07,0C119.09,162.07,118.84,161.85,118.54,162Z"/><path class="cls-23" d="M123.08,172.61h0c-.85.17-1.16,2-1.33,2.66a22.66,22.66,0,0,0-.59,7.61,13.56,13.56,0,0,0,.7,3.91.26.26,0,0,0,.46.06c.68-1.11.39-2.4.25-3.62a25.5,25.5,0,0,1-.13-3.81,24.59,24.59,0,0,1,.4-3.73c.11-.63.27-1.25.38-1.88C123.24,173.42,123.35,172.92,123.08,172.61Z"/><path class="cls-23" d="M129.49,182.38a4,4,0,0,0-.12-2,.12.12,0,0,0-.2,0,3.24,3.24,0,0,0-.78,1.9,19.92,19.92,0,0,0-.39,4.62,4.48,4.48,0,0,0,.48,2.17.38.38,0,0,0,.69-.09,6.3,6.3,0,0,0,.21-2.25c0-.72,0-1.43,0-2.15S129.44,183.1,129.49,182.38Z"/><path class="cls-23" d="M173.75,172.87a39.42,39.42,0,0,0-.87-5.16c-.19-.87-.37-1.75-.57-2.63a4.57,4.57,0,0,0-.74-2.17.18.18,0,0,0-.27,0,4,4,0,0,0,0,2.15c.08.85.18,1.7.28,2.55.18,1.65.4,3.31.46,5a20,20,0,0,1-.37,4.7c-.28,1.45-1.06,3-.72,4.5a.36.36,0,0,0,.52.22c1.41-.82,1.76-2.74,2-4.22A18.32,18.32,0,0,0,173.75,172.87Z"/><path class="cls-23" d="M168.49,174c-.14-.72-.35-1.42-.51-2.13a9.88,9.88,0,0,1-.18-2.1c0-.06-.06-.07-.1,0-1,.77-.69,2.39-.54,3.46a29.46,29.46,0,0,1,.25,4.5,25.51,25.51,0,0,1-.45,4.44c-.14.75-.33,1.48-.47,2.23a3.07,3.07,0,0,0,0,1.8.19.19,0,0,0,.26.07,2.69,2.69,0,0,0,1.07-1.5,11.34,11.34,0,0,0,.58-2.09,23.86,23.86,0,0,0,.47-4.38A22.51,22.51,0,0,0,168.49,174Z"/><path class="cls-23" d="M164.13,184.06c0-.12-.14-.28-.28-.24-.32.07-.41.53-.51.8a6.74,6.74,0,0,0-.2.89,8.06,8.06,0,0,0-.13,1c0,.26,0,.71.39.71s.5-.47.56-.76.11-.6.15-.9a5.39,5.39,0,0,0,.07-1A1.63,1.63,0,0,0,164.13,184.06Z"/><path class="cls-23" d="M151.87,137.26a9.91,9.91,0,0,1-1.12,1c-.4.42-.77.85-1.18,1.27a24.37,24.37,0,0,1-2.47,2.18c-1.9,1.5-3.89,2.92-5.9,4.27a45.17,45.17,0,0,1-13.36,6.47,30.89,30.89,0,0,1-8.46.92c-.21,0-.27.34,0,.38,5,1,10.42-.29,15.06-2.26a61.79,61.79,0,0,0,13.3-8.16,26.1,26.1,0,0,0,3-2.56,8,8,0,0,0,1.24-1.61,3.2,3.2,0,0,0,.36-.9,4.15,4.15,0,0,1,.16-.78C152.56,137.15,152.05,137,151.87,137.26Z"/><path class="cls-23" d="M148.78,131c0-.17-.24-.15-.31-.05a7.75,7.75,0,0,1-1.78,1.65c-.74.55-1.47,1.12-2.22,1.66-1.61,1.15-3.28,2.23-5,3.26a49.07,49.07,0,0,1-10.9,5.12,47,47,0,0,1-6.82,1.43c-.09,0-.06.13,0,.14a17.05,17.05,0,0,0,3.35.05,27.85,27.85,0,0,0,3.17-.48,34.46,34.46,0,0,0,6-2,59.18,59.18,0,0,0,11.15-6.3C146.91,134.51,149.14,133.11,148.78,131Z"/><path class="cls-23" d="M170,148.2a3.65,3.65,0,0,0-1.6-1.43c-.56-.31-1.11-.65-1.65-1a22,22,0,0,1-3.19-2.58,21.24,21.24,0,0,1-2.6-3.15c-.38-.57-.73-1.14-1.07-1.73-.18-.31-.35-.62-.52-.93,0-.07-.27-.58-.43-.64h0a.42.42,0,0,0,0-.1.2.2,0,0,0-.33.09c-.17.56.29,1.41.5,1.92s.57,1.26.9,1.87a21.51,21.51,0,0,0,2.52,3.62,19.37,19.37,0,0,0,3.23,3c1.05.78,2.71,2,4.08,1.54A.35.35,0,0,0,170,148.2Z"/><path class="cls-23" d="M169.6,142.36a15.8,15.8,0,0,1-3.42-3.06,22.15,22.15,0,0,1-1.61-2.23c-.24-.36-.47-.73-.71-1.1q-.17-.27-.36-.54c-.14-.22-.34-.4-.47-.62,0-.06-.16,0-.13.05.15.35.21.73.35,1.09s.32.72.5,1.07a21.73,21.73,0,0,0,1.17,2.11,13.84,13.84,0,0,0,3.13,3.52,7,7,0,0,0,.9.59,1.76,1.76,0,0,0,1.11.3.34.34,0,0,0,.29-.41C170.3,142.79,169.87,142.54,169.6,142.36Z"/><path class="cls-23" d="M149.86,122.63a6.14,6.14,0,0,0-2.83-.4,22.29,22.29,0,0,0-2.83.18,43.1,43.1,0,0,0-5.73,1.06,47.69,47.69,0,0,0-5.61,1.7c-.84.31-1.68.65-2.5,1-.5.21-1.74.49-1.65,1.22a.27.27,0,0,0,.19.24c.15,0,.39,0,.37-.2a5.65,5.65,0,0,0,.55-.14l.65-.26,1.21-.44c.81-.29,1.62-.55,2.45-.79,1.69-.5,3.38-1,5.1-1.36a39.84,39.84,0,0,1,5.2-.91,25.08,25.08,0,0,1,2.6-.07,14.51,14.51,0,0,0,2.71.12A.53.53,0,0,0,149.86,122.63Z"/><path class="cls-17" d="M139.8,157.94h0Z"/><polygon class="cls-17" points="141.02 158.19 141.02 158.19 141.02 158.19 141.02 158.19"/><path class="cls-17" d="M142.61,156.92a3.28,3.28,0,0,0-2.67-.6,3.07,3.07,0,0,0-1.66,1.05,1.92,1.92,0,0,0-.41.72c-.06.34.23.75.61.61a2.09,2.09,0,0,0,.59-.39,2.78,2.78,0,0,1,.38-.25l.12-.06h0l.21-.05h.41l.23.05a4.5,4.5,0,0,1,.48.16l.1,0,0,0,0,0h0c.09,0,0,0,0,0l.17.09a3.21,3.21,0,0,1,.46.29,1,1,0,0,0,1,0,.87.87,0,0,0,.44-.57A1,1,0,0,0,142.61,156.92Z"/><path class="cls-17" d="M160.64,157.67a3,3,0,0,0-1.21-1.42,3.24,3.24,0,0,0-1.59-.56,3.44,3.44,0,0,0-1.51.31c-.46.19-1.19.52-1.3,1.08a.49.49,0,0,0,.46.6,1.55,1.55,0,0,0,.63-.18,4.81,4.81,0,0,1,.52-.14h.47l.13,0,.29.09a1.84,1.84,0,0,1,.25.09l.2,0s0,0,0,0l.11.06a1.28,1.28,0,0,1,.25.15.18.18,0,0,1,.07,0,1.9,1.9,0,0,1,.21.19c.06.06.11.15.18.19-.1-.12-.1-.12,0,0l.1.12s.13.18,0,0a1,1,0,0,0,1.18.39A.94.94,0,0,0,160.64,157.67Z"/><path class="cls-24" d="M141.75,160.7a.3.3,0,0,0-.08-.08c-.88-.77-1.59.18-1.9,1a4,4,0,0,0-.17,2.23,1.39,1.39,0,0,0,1.85,1.14C143,164.5,142.61,161.61,141.75,160.7Z"/><path class="cls-24" d="M158.28,160.7a.6.6,0,0,0-.08-.08c-.88-.77-1.59.18-1.91,1a4,4,0,0,0-.16,2.23A1.39,1.39,0,0,0,158,165C159.56,164.5,159.14,161.61,158.28,160.7Z"/><path class="cls-25" d="M136.93,170.94c-.17-.27-.39-.5-.58-.76s-.23-.42-.38-.63L134.86,168c-.76-1.07-1.53-2.14-2.33-3.19-1.4-1.85-2.74-3.86-4.8-5a.34.34,0,0,0-.42.53,24.86,24.86,0,0,1,2.32,2.49c.72.93,1.35,1.93,2,2.92s1.34,2,2,3c.36.53.73,1.05,1.1,1.57.14.22.32.38.47.58s.33.55.52.8C136.25,172.34,137.42,171.7,136.93,170.94Z"/><path class="cls-25" d="M132.58,174.32c-.72-.39-1.42-.81-2.12-1.24s-1.35-.86-2-1.32c-.29-.21-.59-.41-.85-.64s-.23-.24-.36-.36-.36-.16-.54-.26a.23.23,0,0,0-.3.08c-.52.86.39,1.43,1,1.89s1.52,1.08,2.31,1.58,1.58.92,2.39,1.33a5.14,5.14,0,0,0,1.27.49c.16,0,.72.11.74-.19C134.19,175,133.07,174.58,132.58,174.32Z"/><path class="cls-25" d="M166.86,166.68l0,0a.44.44,0,0,0-.7-.09,5.34,5.34,0,0,1-.78.53c-.31.21-.61.43-.9.65-.59.44-1.16.89-1.71,1.38s-1.08,1-1.59,1.48c-.26.26-.53.53-.77.81a1.63,1.63,0,0,0-.49.91.31.31,0,0,0,.38.29,1.85,1.85,0,0,0,.86-.61l.75-.75c.52-.5,1.06-1,1.61-1.46s1.08-.89,1.65-1.3c.3-.23.6-.44.91-.65a2.48,2.48,0,0,0,.81-.66A.48.48,0,0,0,166.86,166.68Z"/><path class="cls-25" d="M165.61,175.55a1.77,1.77,0,0,1-.17-.12.88.88,0,0,0-.36-.1,1.51,1.51,0,0,0-.59.11l-1.11.31-1.1.28a2.21,2.21,0,0,0-1.07.43.25.25,0,0,0,0,.4,1.84,1.84,0,0,0,1.14.08,10,10,0,0,0,1.22-.19c.39-.07.77-.17,1.15-.27a1.45,1.45,0,0,0,.61-.26.91.91,0,0,0,.2-.24.9.9,0,0,0,.08-.23A.14.14,0,0,0,165.61,175.55Z"/><path class="cls-7" d="M149.62,166c-12.12.26-16.16,4.59-16.43,10.58s3.12,13.16,15.34,12.69,14.8-7.64,14-12.1S160.61,165.76,149.62,166Z"/><path class="cls-25" d="M157.88,171.92a2.11,2.11,0,0,0-1.6,0,36.07,36.07,0,0,1-7.67,1,39.21,39.21,0,0,1-4.2-.14c-.78-.07-1.56-.17-2.34-.27a10.52,10.52,0,0,0-2.09-.22.14.14,0,0,0-.07.26,12.57,12.57,0,0,0,3.57,1.06,33.58,33.58,0,0,0,3.72.51,30.71,30.71,0,0,0,7.54-.35q.91-.15,1.83-.36c.52-.11,1.22-.27,1.49-.79A.49.49,0,0,0,157.88,171.92Z"/><path class="cls-25" d="M157.51,182.07a.38.38,0,0,0-.35-.27,5.77,5.77,0,0,0-1.74.29c-.66.15-1.33.28-2,.4a26.28,26.28,0,0,1-4.34.35,30.43,30.43,0,0,1-4.26-.32c-.67-.1-1.34-.24-2-.38A3.78,3.78,0,0,0,141,182s0,0,0,0a3,3,0,0,0,1.66.88,20.54,20.54,0,0,0,2.18.57,24.44,24.44,0,0,0,4.74.49C150.52,184,158.09,183.7,157.51,182.07Z"/><path class="cls-26" d="M162.84,256.2c-.34-1-.69-2-1.06-2.92s-.75-1.93-1.15-2.89c-.23-.54-.58-2.36-1-2.76s-2.47,0-3.24,0l-8,.4c-3.51.19-7.13.67-10.59-.19a32.69,32.69,0,0,1-4.89-1.74,8.34,8.34,0,0,1-3.85-2.87,21.14,21.14,0,0,1-3.33-9.12,36.09,36.09,0,0,1-.29-6.06,44.7,44.7,0,0,0,.12-6.12.09.09,0,0,0-.17,0,19.86,19.86,0,0,0-.77,5.65,37,37,0,0,0,.15,5.57,24,24,0,0,0,2.83,9.43,9,9,0,0,0,3.34,3.59,29.84,29.84,0,0,0,4.62,2,27.18,27.18,0,0,0,10.61,1.14c4.16-.2,8.32-.42,12.48-.61a13.17,13.17,0,0,0,.65,1.63c.33.81.66,1.62,1,2.44a39.76,39.76,0,0,1,1.73,4.91,1.21,1.21,0,0,1-.73,1.51,22.83,22.83,0,0,1-2.37,1.06q-2.28.94-4.64,1.73a49.68,49.68,0,0,1-19.78,2.73,50.08,50.08,0,0,1-5.45-.81c-1.86-.37-3.67-.93-5.5-1.38a.26.26,0,0,0-.2.47,25.25,25.25,0,0,0,10.13,2.92,44.53,44.53,0,0,0,10.76-.19,56.48,56.48,0,0,0,10.5-2.49q2.49-.85,4.9-1.87c1.23-.52,3.15-1.05,3.64-2.47A4.18,4.18,0,0,0,162.84,256.2Z"/><path class="cls-26" d="M168,221.31c-.06-.21-.13-.41-.2-.62s-.19-.44-.29-.65-.37-.52-.63-.32-.15.52-.11.76a4.56,4.56,0,0,0,.14.64l.18.62a.89.89,0,0,0,.2.44.51.51,0,0,0,.69,0C168.21,221.94,168.06,221.6,168,221.31Z"/><path class="cls-26" d="M158.05,198.68a.71.71,0,0,0-1.12.1.43.43,0,0,0-.06.27,1.2,1.2,0,0,0,0,.17c-.08.13-.2.27-.29.39-.33.44-.67.87-1,1.28a9.85,9.85,0,0,1-2.22,1.9,15.47,15.47,0,0,1-5.75,2,13.79,13.79,0,0,1-10.71-2.74,13.09,13.09,0,0,1-3.51-4.66c-.19-.37-.77-.11-.66.28a11.3,11.3,0,0,0,3.38,5,13.29,13.29,0,0,0,5.45,2.94,16.24,16.24,0,0,0,7.14.23,15.25,15.25,0,0,0,6.64-2.8,14.71,14.71,0,0,0,2.65-2.92C158.21,199.75,158.49,199.12,158.05,198.68Z"/><path class="cls-26" d="M182.66,294.53a48.78,48.78,0,0,1-5.85,2.15,53.09,53.09,0,0,1-6.14,1.28c-4.41.68-8.87,1.08-13.31,1.43a125.3,125.3,0,0,1-13.84.38,75.46,75.46,0,0,1-12.9-1.33,56.16,56.16,0,0,1-7-1.88c-2.09-.73-4.62-1.38-6.11-3.14-.34-.41-.91.17-.58.58,1.25,1.57,3.23,2.26,5,3a49.82,49.82,0,0,0,6.19,2.16,53.4,53.4,0,0,0,6.5,1.42c2.19.36,4.39.7,6.61.86a107.68,107.68,0,0,0,14.37-.11c4.63-.31,9.26-.74,13.85-1.36a60.65,60.65,0,0,0,7.19-1.34,27.7,27.7,0,0,0,6.89-2.6C184.58,295.47,183.68,294.09,182.66,294.53Z"/><path class="cls-22" d="M182.76,247.1a1.85,1.85,0,0,0-.52-1,1.13,1.13,0,0,0-.4-.23,3,3,0,0,0,.55-.63,2,2,0,0,0-1.22-3.05,2.7,2.7,0,0,0-1.09-.07,1.39,1.39,0,0,0-.57-1.6,3,3,0,0,0-3,.12q-1.66.73-3.27,1.59c-.53.28-1.07.57-1.59.89a3.82,3.82,0,0,0-1.27,1c0,.06,0,.17.09.16a7.19,7.19,0,0,0,2.26-1.06c.78-.43,1.58-.84,2.39-1.23a18.14,18.14,0,0,1,2.52-1.1A1.8,1.8,0,0,1,179,241c.35.2.58.61.28,1a.34.34,0,0,0-.08.31,19.32,19.32,0,0,0-2.33,1.12l-2.8,1.42-1.3.69a3.89,3.89,0,0,0-1.21.87.07.07,0,0,0,0,.11,6.54,6.54,0,0,0,2.45-.86c.89-.4,1.78-.82,2.67-1.24a27.61,27.61,0,0,1,2.6-1.18,2.05,2.05,0,0,1,2.16.19c.72.71-.1,1.61-.7,2s-1.51,1-2.28,1.43-1.59.92-2.4,1.36-1.53.71-2.22,1.16l0,0a.24.24,0,0,0-.34.14,1.84,1.84,0,0,0-.06.41.45.45,0,0,0,.56.43,12.48,12.48,0,0,0,2.24-1.08c.78-.42,1.56-.86,2.32-1.31s1.47-.88,2.19-1.35a6.61,6.61,0,0,0,.55-.37,1.15,1.15,0,0,0,.14.17,1.82,1.82,0,0,1,.31.31,1.15,1.15,0,0,1,.18.83c-.15.77-.94,1.31-1.55,1.71a18.27,18.27,0,0,1-2.29,1.27l-1.25.55a5,5,0,0,0-.63.27l-.24.15c-.09.06-.14.15-.21.2a.29.29,0,0,0,.22.52c.1,0,.23,0,.35,0l.38-.1c.25-.09.5-.2.74-.31.51-.21,1-.43,1.52-.68a12.13,12.13,0,0,0,2.64-1.67A2.67,2.67,0,0,0,182.76,247.1Z"/><path class="cls-22" d="M182.65,249.8c-.1-.34-.41-.69-.78-.44a.24.24,0,0,0-.1.25l0,.1s0,0,0,0c.51.55-.11,1.57-.49,2a5.52,5.52,0,0,1-2,1.34,13.48,13.48,0,0,1-2.33.67l-1.32.28a4.4,4.4,0,0,0-.62.18c-.22.09-.41.24-.62.35s-.06.27.08.29a3.86,3.86,0,0,0,.9.06c.28,0,.57-.09.84-.14l1.57-.34a9.83,9.83,0,0,0,2.79-1.07,4.22,4.22,0,0,0,1.88-2.2A2.41,2.41,0,0,0,182.65,249.8Z"/><path class="cls-22" d="M224.2,240.28c-.24,0-.47,0-.71,0l-.48,0a2.39,2.39,0,0,0-1.3-.2c-.65,0-1.29,0-1.93.07a7.39,7.39,0,0,0-1.48.18s0,0,0-.05c-.22-.51.45-1.17.77-1.48a2.8,2.8,0,0,1,1.62-.7,14.29,14.29,0,0,1,2.06-.24,8.46,8.46,0,0,1,1,0,2,2,0,0,0,1,0,.28.28,0,0,0,.12-.46,1.74,1.74,0,0,0-1.14-.32,10,10,0,0,0-1.34,0,11.83,11.83,0,0,0-2.51.4,3.13,3.13,0,0,0-1.73,1.28c-.35.49-.73,1.16-.28,1.65a2.59,2.59,0,0,0-1,.7,1.84,1.84,0,0,0-.11,2.47,2.07,2.07,0,0,0,.73.5,1.53,1.53,0,0,0-.14.41,2.09,2.09,0,0,0,0,1.11,1.69,1.69,0,0,0,.93,1c-.22.19-.24.6-.27.85a2.09,2.09,0,0,0,1.65,2.44,8.79,8.79,0,0,0,2.56.22c.44,0,.89,0,1.34-.07s.77,0,1-.36a.28.28,0,0,0-.24-.43c-.28,0-.56.07-.84.09s-.66.05-1,.06a14.33,14.33,0,0,1-2.07-.08,2.21,2.21,0,0,1-1.49-.7,1.29,1.29,0,0,1-.25-.8,1.59,1.59,0,0,1,.13-.87.21.21,0,0,0,0-.13,10.48,10.48,0,0,0,2.48.43,11.75,11.75,0,0,0,2.78-.08.36.36,0,0,0,.25-.44.49.49,0,0,0-.36-.35.23.23,0,0,0-.23.11,14.31,14.31,0,0,1-4.08-.07,3,3,0,0,1-1.48-.56,1.48,1.48,0,0,1-.19-1.65,6.38,6.38,0,0,0,1.9,0q1.09-.08,2.19-.09h1.1c.31,0,.63.06.85-.2a.14.14,0,0,0,0-.19c-.34-.44-1.14-.29-1.63-.29-.69,0-1.37,0-2.06.07-1,.07-2.94.49-3.34-.82a1.44,1.44,0,0,1,.55-1.42,3.06,3.06,0,0,1,1.76-.58c.65-.06,1.3-.07,1.95-.1.36,0,.71,0,1.06,0h0a.6.6,0,0,0,.19.06,1.57,1.57,0,0,0,.37.05l.77,0a5.72,5.72,0,0,0,.72,0,.75.75,0,0,0,.6-.37.1.1,0,0,0-.06-.14A1.92,1.92,0,0,0,224.2,240.28Z"/><path class="cls-27" d="M135,415.17q-.69-2.82-1.34-5.64-1.34-5.77-2.51-11.57-2.36-11.61-4.09-23.32a445.37,445.37,0,0,1-4.51-47.24c-.37-8.86-.45-17.72-.57-26.58a.12.12,0,0,0-.24,0c-.42,8-.38,15.95-.11,23.92s.72,15.77,1.37,23.63a433.56,433.56,0,0,0,6.56,46.78q1.28,6.51,2.74,13,.75,3.3,1.55,6.59a56.67,56.67,0,0,0,1.76,6.53.38.38,0,0,0,.74-.21C136,419.07,135.44,417.13,135,415.17Z"/><path class="cls-27" d="M128.06,302.13a.26.26,0,0,0-.43-.12,2,2,0,0,0-.7,1.07c-.15.44-.31.87-.49,1.31A21.2,21.2,0,0,1,125.2,307a24,24,0,0,1-1.52,2.34c-.28.38-.58.75-.88,1.12a1.57,1.57,0,0,0-.56,1.08.21.21,0,0,0,.21.21c.47,0,.71-.28,1-.62a14.4,14.4,0,0,0,1-1.11,21.75,21.75,0,0,0,1.71-2.47,20.14,20.14,0,0,0,1.33-2.62c.2-.46.37-.91.53-1.38A1.89,1.89,0,0,0,128.06,302.13Z"/><path class="cls-27" d="M178,307.49c-.49-.75-.94-1.52-1.37-2.3s-.8-1.54-1.16-2.33c-.11-.25-.61-1.79-1.07-1.44-.26.2-.13.64-.07.91a11,11,0,0,0,.37,1.24,25.5,25.5,0,0,0,1,2.42,20.85,20.85,0,0,0,1.19,2.24c.41.68.93,1.69,1.77,1.83a.33.33,0,0,0,.41-.31C179.14,308.93,178.41,308.14,178,307.49Z"/><path class="cls-28" d="M153,349.2s0,0,0,0"/><path class="cls-27" d="M155.66,321.87a.22.22,0,0,0-.39-.05,4.61,4.61,0,0,0-.7,1.38c-.1.48-.15,1-.22,1.46-.15,1-.29,2.06-.42,3.1q-.41,3.23-.68,6.47c-.19,2.11-.35,4.24-.51,6.36-.08,1-.15,2.09-.22,3.13a10.12,10.12,0,0,0,0,3.06.3.3,0,0,0,.54.07,8.94,8.94,0,0,0,.52-2.77c.11-1,.21-2.08.3-3.13.21-2.16.41-4.32.63-6.48s.45-4.23.7-6.35c.14-1.07.28-2.15.43-3.22.08-.51.17-1,.22-1.52A4.9,4.9,0,0,0,155.66,321.87Z"/><path class="cls-26" d="M149.53,439.58a1,1,0,0,0-.43-.11.81.81,0,0,0-.61.25,4.72,4.72,0,0,0-.48.69l-.35.62-.66,1.22a.94.94,0,0,0,.44,1.33,1.06,1.06,0,0,0,.61,0h.08a1,1,0,0,0,.68-.79l.45-.85a7.62,7.62,0,0,0,.66-1.42A.87.87,0,0,0,149.53,439.58Z"/><path class="cls-26" d="M153.53,440.82a.47.47,0,0,0-.06-.15.39.39,0,0,0,0-.15.45.45,0,0,0-.26-.35h0a.45.45,0,0,0-.41.11s0,.05,0,0l0,0a.79.79,0,0,0-.22.06.87.87,0,0,0-.21.17,1.51,1.51,0,0,0-.27.39,6.59,6.59,0,0,0-.3.73,7.06,7.06,0,0,0-.36,1.27.78.78,0,0,0,1.42.6,1,1,0,0,0,.13-.37,7.7,7.7,0,0,1,.27-1.05l.1-.27.06-.16h0s0,0,0,0a1.9,1.9,0,0,0,.14-.4A1,1,0,0,0,153.53,440.82Z"/><path class="cls-26" d="M176.78,440.13l-.05-.13a.42.42,0,0,0,0-.22v-.08c0-.2-.24-.27-.37-.15l0,0a.36.36,0,0,0-.19.08l-.06,0-.16.05a1,1,0,0,0-.2.15,2,2,0,0,0-.18.21l0,.06a3,3,0,0,0-.38.57,11,11,0,0,0-.57,1.07.86.86,0,0,0,0,.75.79.79,0,0,0,.55.49,1.37,1.37,0,0,0,.45,0,1,1,0,0,0,.53-.26l-.16.13a.41.41,0,0,0,.11-.07.78.78,0,0,0,.36-.88.08.08,0,0,0,0-.05c.09-.22.2-.44.28-.66s.14-.41.2-.62A1,1,0,0,0,176.78,440.13Z"/><path class="cls-26" d="M180.2,439.71a8.54,8.54,0,0,0-.64.71l-.09.1a1.94,1.94,0,0,0-.21.29l-.24.36a6.21,6.21,0,0,0-.47.78c-.07.12-.12.24-.19.36l-.05.09,0,0a.83.83,0,0,0-.13,1,.88.88,0,0,0,.94.39,1.34,1.34,0,0,0,.86-.86c.17-.34.3-.71.44-1.07a8,8,0,0,0,.44-1.94C180.86,439.64,180.41,439.5,180.2,439.71Z"/><path class="cls-29" d="M279.1,342.3c-.05-1.25-.1-2.49-.14-3.74-.09-2.49-.16-5-.23-7.48s-.11-5-.19-7.48c0-1.25-.07-2.49-.09-3.74,0-.58,0-1.16-.06-1.75a2.09,2.09,0,0,0-.31-1.28,0,0,0,0,0-.08,0,2.12,2.12,0,0,0-.38,1.28c-.05.59-.09,1.17-.13,1.75-.07,1.25-.13,2.49-.19,3.74-.12,2.49-.16,5-.17,7.48s0,5,.12,7.48c0,1.25.09,2.49.14,3.74,0,1,0,2.47.74,3.24a.35.35,0,0,0,.51,0C279.34,344.69,279.15,343.33,279.1,342.3Z"/><path class="cls-29" d="M256,306.39a.29.29,0,0,0-.53.06c-.06.19-.29.36-.43.49s-.3.29-.44.45l-.92,1c-.65.68-1.32,1.34-2,2s-1.36,1.23-2.06,1.82l-1,.86a4.18,4.18,0,0,1-.57.45c-.14.09-.61.28-.51-.21a0,0,0,0,0-.07,0,.6.6,0,0,0,0,.8,1,1,0,0,0,1.33.15,19.48,19.48,0,0,0,3.05-2.22,35.67,35.67,0,0,0,2.78-2.58C255.37,308.61,256.67,307.57,256,306.39Z"/><path class="cls-29" d="M313.69,313.7c-.43.15-.84-.19-1.21-.41s-.84-.52-1.25-.8a19.81,19.81,0,0,1-2.34-1.85,22.53,22.53,0,0,1-2.08-2.18c-.19-.22-1.34-2.06-1.71-1.67s0,.94.24,1.3a16.17,16.17,0,0,0,.9,1.42,17.59,17.59,0,0,0,2.24,2.63,14.45,14.45,0,0,0,2.7,2.11,2,2,0,0,0,2.73-.27A.19.19,0,0,0,313.69,313.7Z"/><path class="cls-14" d="M256.5,442.71a.75.75,0,0,0,.09-.15.86.86,0,0,0,.06-.65h0a.26.26,0,0,0-.1-.25l-.24-.42c-.17-.31-.35-.61-.53-.92s-.36-.58-.53-.88L255,439a2.56,2.56,0,0,0-.2-.26l-.14-.09,0,0a.42.42,0,0,0-.71.29v.06a2,2,0,0,0,.17,1c.13.37.27.74.42,1.1a10,10,0,0,0,.43.94c.09.16.17.33.27.48a.93.93,0,0,0,1,.44.52.52,0,0,0,.3-.18h0S256.48,442.73,256.5,442.71Z"/><path class="cls-14" d="M260.58,440.51c-.05-.08-.11-.14-.16-.21h0a3.48,3.48,0,0,1-.28-.39c-.2-.29-.4-.57-.59-.86s-.4-.55-.59-.83a4,4,0,0,0-.31-.43,1,1,0,0,0-.33-.3c-.1-.09-.25-.19-.35-.08a.42.42,0,0,0-.12.24,1.63,1.63,0,0,0,0,1,6.3,6.3,0,0,0,.36,1.14,6.23,6.23,0,0,0,.51.91c.1.15.21.29.32.44a1.5,1.5,0,0,0,.73.63.78.78,0,0,0,1-.75A1.12,1.12,0,0,0,260.58,440.51Z"/><path class="cls-14" d="M284,441.59v0l0-.06a1,1,0,0,0,.09-.34.18.18,0,0,0-.27-.16,1.14,1.14,0,0,0-.16.15l-.27-.45a13.67,13.67,0,0,0-.76-1.21c-.28-.39-.56-.78-.87-1.15a4,4,0,0,0-.48-.44c-.07-.06-.31-.25-.42-.12s-.08.28,0,.47a2.88,2.88,0,0,0,.17.64c.18.44.37.88.56,1.32s.39.81.6,1.21a3,3,0,0,0,.87,1.27.65.65,0,0,0,1-.56h0a1.13,1.13,0,0,0,0-.18,1.35,1.35,0,0,1,0-.22A.57.57,0,0,0,284,441.59Z"/><path class="cls-14" d="M287.78,440.34a2.55,2.55,0,0,0-.32-.69l-.38-.61a14.93,14.93,0,0,0-.88-1.21,3.25,3.25,0,0,0-.48-.5.87.87,0,0,0-.36-.18c-.08,0-.27,0-.32.05a.76.76,0,0,0-.15.41,1.86,1.86,0,0,0,0,.33,3.44,3.44,0,0,0,.21.53c.15.35.31.68.48,1s.35.63.53.93l.28.44,0,.06s0,0,0,0l.06.11a.39.39,0,0,0,.06.11.93.93,0,0,0,.18.16h0a.61.61,0,0,0,.51.07A.87.87,0,0,0,287.78,440.34Z"/><path class="cls-14" d="M278.51,447.47c-.35.52-1.45-1.15-1.6-1.38a4.38,4.38,0,0,1-.93-2.22c-.09-1.51,1-2.49,2.13-3.31a.14.14,0,0,0-.07-.25c-2-.12-3.23,2.49-3,4.19a6.93,6.93,0,0,0,1.62,3.09c.32.42.76.88,1.34.77a.91.91,0,0,0,.72-.82A.13.13,0,0,0,278.51,447.47Z"/><path class="cls-30" d="M313.92,266.53a.31.31,0,0,0-.39-.22,4,4,0,0,0-2.24,1.76,28,28,0,0,1-2.1,2.25,30.11,30.11,0,0,1-4.82,3.75,38.77,38.77,0,0,1-11.32,4.75,57.7,57.7,0,0,1-14.64,1.53c-2.53,0-5.06-.16-7.59-.36s-4.94-.32-7.36-.72c-.8-.13-1.95-.35-2.09-1.32a8.77,8.77,0,0,1,.18-2.1c.08-.73.17-1.46.25-2.2q.46-4.27.72-8.56c1.45,1.11,3.4,1.22,5.2,1.23,2.37,0,4.75,0,7.11-.15a31.53,31.53,0,0,0,12.86-3.23,28.46,28.46,0,0,0,9.13-7.59,37.21,37.21,0,0,0,5.83-12q1.26-3.9,2.25-7.86c.34-1.36.67-2.73,1-4.1a11.57,11.57,0,0,0,.34-2,7.18,7.18,0,0,0-.28-1.95.22.22,0,0,0-.4-.05,8.27,8.27,0,0,0-1.34,3.05c-.28,1.13-.51,2.27-.79,3.4q-.84,3.45-1.87,6.85a46.16,46.16,0,0,1-5.1,12,25.54,25.54,0,0,1-8,7.75,29.31,29.31,0,0,1-11.54,3.92,72.66,72.66,0,0,1-7.8.55,16.47,16.47,0,0,1-6.65-.8.29.29,0,0,0-.37.18.48.48,0,0,0-.52.37c-.52,2.73-1,5.48-1.39,8.23-.19,1.37-.4,2.75-.56,4.13a3.29,3.29,0,0,0,1,3.06,5.48,5.48,0,0,0,2.73,1c1.3.19,2.62.31,3.93.45,2.72.29,5.45.51,8.18.63,9.8.42,19.9-.69,28.56-5.61a33.9,33.9,0,0,0,6-4.31,28.57,28.57,0,0,0,2.54-2.62,8.83,8.83,0,0,0,1.17-1.49A2.52,2.52,0,0,0,313.92,266.53Z"/><path class="cls-30" d="M292.5,200.39c-.12.28-.75.66-1,.84a10.5,10.5,0,0,1-1.27.81,12.42,12.42,0,0,1-2.56,1.05,19.48,19.48,0,0,1-6,.7c-4.26-.1-9-1.07-11.65-4.69a.67.67,0,0,0-1.16.68c1.82,3.59,5.9,5.16,9.67,5.67a21.84,21.84,0,0,0,11-.94,12.73,12.73,0,0,0,2.64-1.37,5.12,5.12,0,0,0,2.19-2.23C294.79,199.69,293,199.25,292.5,200.39Z"/><path class="cls-30" d="M254.07,225.3a.32.32,0,0,0-.57-.07,16.93,16.93,0,0,0-.8,3.67l-.66,3.64c-.45,2.51-.82,5-1.21,7.55s-.76,5-1.15,7.58c-.18,1.22-.38,2.44-.57,3.66s-.55,2.53.08,3.61a.37.37,0,0,0,.58.08c.94-.84,1-2.28,1.18-3.44s.38-2.44.56-3.66c.38-2.53.77-5.06,1.11-7.59s.69-5.05.93-7.59c.12-1.22.23-2.45.34-3.68A16.36,16.36,0,0,0,254.07,225.3Z"/><path class="cls-31" d="M290.47,196.15c-1.47-2.43-2.75-6.66-2-13.87l-12.21.61-2.93,1.23s0,2.67-.24,5.5a19,19,0,0,0,17.4,6.53Z"/><path class="cls-16" d="M303,161.73s6.06.14,5.91,4-2.74,8.65-6.48,8.65c0,0-5.62,16.14-21.76,16.14s-22.76-22.91-21.47-33.29a43.89,43.89,0,0,0,7.35-13.68s6.77,4.89,9.22,5.18,3-1.15,3-1.15,4.75,3.17,7.63,4a5.43,5.43,0,0,0,4.9-.86s2.59,3.68,4.47,4.61,2.88,0,2.88,0S299.69,160.72,303,161.73Z"/><path class="cls-31" d="M306,167.35a1.39,1.39,0,0,0-1.42-.17,2.12,2.12,0,0,1,.58-1,2.75,2.75,0,0,1,1.07-.56.47.47,0,0,0-.12-.91,2.23,2.23,0,0,0-1.62.65,3.15,3.15,0,0,0-.94,1.43,5,5,0,0,0,.62,3.89.59.59,0,0,0,.79.21,3.09,3.09,0,0,0,1.44-1.44A1.74,1.74,0,0,0,306,167.35Z"/><path class="cls-32" d="M310.89,162.54c-.28-.15-.56-.23-.84-.39a3.46,3.46,0,0,0-1-.39,24,24,0,0,0-2.41-.31,6.77,6.77,0,0,1-3.6-1.28,11.08,11.08,0,0,1-2.18-2.64c-.34-.52-.65-1.05-.95-1.59-.14-.25-.27-.5-.42-.75,0-.05-.06-.09-.08-.14a1.52,1.52,0,0,0,.22-.22,1.7,1.7,0,0,0,.25-.59.29.29,0,0,0-.28-.36c.1,0-.05,0-.11,0a.85.85,0,0,0-.23,0,2.56,2.56,0,0,0-.55.05,5.08,5.08,0,0,1-.94.2,3.8,3.8,0,0,1-2-.51,11,11,0,0,1-3.25-3.31.44.44,0,0,0-.15-.12s0,0,0-.07a.36.36,0,0,0-.54-.31h0c-.52-.06-.88.31-1.25.67a3.76,3.76,0,0,1-1.41.84,5.43,5.43,0,0,1-3.83-.46c-1.27-.57-2.47-1.3-3.68-2a13.38,13.38,0,0,0-1.88-1s0-.1,0-.15c-.05-.66-1-1-1.33-.36-.21.4-.33.77-.82.9a2.22,2.22,0,0,1-1.55-.38c-1.16-.62-2.26-1.35-3.37-2l-3.38-2.06c-.57-.35-1.13-.7-1.7-1a7.53,7.53,0,0,0-.8-.43.25.25,0,0,1,0-.09.24.24,0,0,0-.4-.1c-.14.14-.38.16-.53.3a1.3,1.3,0,0,0-.35.52,11.84,11.84,0,0,0-.36,1.33c-.24.88-.48,1.77-.75,2.64a28.07,28.07,0,0,1-2,5,18,18,0,0,1-2.68,3.8,14.67,14.67,0,0,1-1.63,1.52,14.26,14.26,0,0,0-1.87,1.37.32.32,0,0,0,.22.53,4.59,4.59,0,0,0,2.12-.87,12.77,12.77,0,0,0,2-1.47,16.56,16.56,0,0,0,3.08-3.84,28.56,28.56,0,0,0,2.29-5.15c.32-.94.61-1.89.87-2.84.12-.45.25-.89.35-1.33v0l.13.08c.67.48,1.36.93,2.05,1.39q2.06,1.4,4.12,2.76c1.17.77,2.32,1.8,3.78,1.92a2.79,2.79,0,0,0,2.22-1c.2.16.44.3.61.42.67.45,1.36.89,2,1.33a21.24,21.24,0,0,0,4,2.21,5.76,5.76,0,0,0,4.07,0,5.63,5.63,0,0,0,1.63-1,2.81,2.81,0,0,0,.34-.35A8.83,8.83,0,0,0,293.2,153a7.59,7.59,0,0,0,2.06,1.81,4.79,4.79,0,0,0,2.53.66,5.32,5.32,0,0,0,.56-.06c0,.12.07.25.11.37a20.67,20.67,0,0,0,.78,2,10.53,10.53,0,0,0,2.38,3.48,7.48,7.48,0,0,0,4,1.89,20.93,20.93,0,0,0,2.73.31,5.77,5.77,0,0,0,2.51-.58A.2.2,0,0,0,310.89,162.54Z"/><path class="cls-32" d="M290.54,145.33c-.38.16-.66,0-1.05-.07s-.95-.21-1.43-.29a26,26,0,0,1-3-.68,36.72,36.72,0,0,1-5.54-2.2,52.76,52.76,0,0,1-5.28-3l-2.56-1.63a4.69,4.69,0,0,1-2.09-2,.07.07,0,0,0-.13,0,1.55,1.55,0,0,0,.38,1.67,10.94,10.94,0,0,0,1.87,1.58c1.51,1.13,3.05,2.23,4.63,3.26a30.71,30.71,0,0,0,10,4.63,9.8,9.8,0,0,0,3.05.3c.66-.06,1.57-.54,1.51-1.31C290.85,145.43,290.71,145.26,290.54,145.33Z"/><path class="cls-32" d="M308,142.6a6.41,6.41,0,0,0-3.46-.58c-1.24,0-2.48,0-3.71-.14a47.18,47.18,0,0,1-7.17-1.16,46.66,46.66,0,0,1-13.51-5.51c-1.17-.71-2.3-1.49-3.4-2.29a38,38,0,0,0-3.35-2.47c-.07,0-.16,0-.11.11a11.77,11.77,0,0,0,2.48,2.65,36.17,36.17,0,0,0,2.9,2.34,44.18,44.18,0,0,0,6.53,3.93,43,43,0,0,0,14.63,4.26c1.4.14,2.8.22,4.21.24s2.9,0,4-.92A.29.29,0,0,0,308,142.6Z"/><path class="cls-32" d="M302.62,136a20.73,20.73,0,0,0-3.33-.49,29.47,29.47,0,0,1-3.24-.5c-2.22-.47-4.43-1-6.63-1.52a52.39,52.39,0,0,1-6.48-1.93,10.74,10.74,0,0,1-2.34-1.19,5.5,5.5,0,0,1-1-.88,4.24,4.24,0,0,0-.81-.88,0,0,0,0,0-.07,0c-.23.77.42,1.54.92,2.06a8.45,8.45,0,0,0,2.19,1.55,44.6,44.6,0,0,0,6.7,2.59c2.34.75,4.72,1.48,7.12,2,2.21.49,5,1.11,7-.34A.28.28,0,0,0,302.62,136Z"/><path class="cls-32" d="M262.63,139.29a.12.12,0,0,0-.14,0c-.41.24-.45.61-.57,1s-.3,1.15-.47,1.72a26.91,26.91,0,0,1-1.22,3.24,24,24,0,0,1-1.56,3,14.62,14.62,0,0,0-.92,1.52,3,3,0,0,0-.42,1.43c0,.09.07.18.17.17a2.45,2.45,0,0,0,1.27-.71,5.58,5.58,0,0,0,1.09-1.37,22,22,0,0,0,1.72-3.34,17.53,17.53,0,0,0,1-3.49,16.41,16.41,0,0,0,.26-1.71C262.93,140.24,263,139.68,262.63,139.29Z"/><path class="cls-32" d="M259.51,138a.16.16,0,0,0-.29,0,4,4,0,0,0-.44.94c-.14.33-.24.67-.36,1-.24.64-.48,1.27-.76,1.89s-.57,1.23-.88,1.84l-.52,1a4.83,4.83,0,0,0-.25.58.69.69,0,0,0-.18.55.48.48,0,0,0,.82.34,11,11,0,0,0,2.07-3.89,15.15,15.15,0,0,0,.61-2.09A4.75,4.75,0,0,0,259.51,138Z"/><path class="cls-31" d="M247.52,263.49c-.4-.16-.8-.3-1.2-.45-.75-.28-1.51-.55-2.26-.85a12.08,12.08,0,0,1-1.85-.89,9.11,9.11,0,0,1-1.56-1.35.36.36,0,0,0-.57.44,4.81,4.81,0,0,0,1.48,1.43,11.14,11.14,0,0,0,2,1c.73.31,1.47.58,2.21.86l1.3.48c.33.13.81.32,1.14.1a.19.19,0,0,0,.08-.2C248.16,263.78,247.8,263.61,247.52,263.49Z"/><path class="cls-31" d="M247.28,268.19a6.6,6.6,0,0,0-2.05-1.12c-.77-.35-1.52-.75-2.27-1.17s-1.43-.84-2.13-1.29a23.39,23.39,0,0,0-2.17-1.38c-.28-.14-.62.23-.36.47a18.18,18.18,0,0,0,2.09,1.51c.73.49,1.47,1,2.23,1.43a24.41,24.41,0,0,0,2.27,1.18,4.28,4.28,0,0,0,2.33.58A.13.13,0,0,0,247.28,268.19Z"/><path class="cls-31" d="M246.14,270.71a37.9,37.9,0,0,1-4-1.28,13.7,13.7,0,0,1-1.91-1c-.62-.37-1.19-.81-1.8-1.17a.16.16,0,0,0-.2.25,10,10,0,0,0,3.65,2.49,9.05,9.05,0,0,0,4.27.9A.11.11,0,0,0,246.14,270.71Z"/><path class="cls-15" d="M269.59,157a3.7,3.7,0,0,0-2.72-.45,3.32,3.32,0,0,0-1.3.58,3,3,0,0,0-.59.59,2.11,2.11,0,0,0-.21.31,1.57,1.57,0,0,0-.09.23l0,.15a.13.13,0,0,1,0,.05c-.11.46.42,1,.86.67l.06,0a1.51,1.51,0,0,0,.18-.09l.22-.15c.15-.1.32-.19.48-.28l.06,0,.05,0h0l.27-.08.27-.08.17,0a4.3,4.3,0,0,1,.51,0h0l.09,0,.27.07h0l.05,0,.05,0-.05,0h0c.08,0,.17.09.25.15s.38.27.58.39a1.44,1.44,0,0,0,1,.24.85.85,0,0,0,.66-1C270.71,157.65,270.07,157.28,269.59,157Z"/><path class="cls-15" d="M266.51,158.52l.05,0h0Z"/><path class="cls-15" d="M268.19,158.4l.05,0h0Z"/><path class="cls-15" d="M288.2,159.1l-.15-.16h0l0,0a7.42,7.42,0,0,0-.61-.86,3.43,3.43,0,0,0-1.82-1.07,3.62,3.62,0,0,0-2.16.13,3.11,3.11,0,0,0-1.86,1.2.46.46,0,0,0,.39.69,8.78,8.78,0,0,0,1.74-.29,6.53,6.53,0,0,1,.88,0l.18,0h.05l.4.1.13,0,.05,0,.34.21h0l0,0,.13.12.09.11s0,.07.06.07c.43.63.93,1.56,1.84,1.3a.92.92,0,0,0,.67-.87A1.18,1.18,0,0,0,288.2,159.1Z"/><path class="cls-15" d="M284.88,161.54a.77.77,0,0,0-.43-.47.72.72,0,0,0-.52,0,.88.88,0,0,0-.29-.07,1.17,1.17,0,0,0-.9.37,1.65,1.65,0,0,0-.41.77,4.63,4.63,0,0,0-.21,1.43,3.55,3.55,0,0,0,.29,1.54,1.17,1.17,0,0,0,1.85.4l.05-.07.14-.17c-.13.16-.11.14.05-.07a1.37,1.37,0,0,0,.13-.2,3.64,3.64,0,0,0,.33-.69A3.84,3.84,0,0,0,284.88,161.54Z"/><path class="cls-15" d="M268.18,162.35a.79.79,0,0,0-.43-.48.72.72,0,0,0-.52,0,1.23,1.23,0,0,0-.29-.07,1.21,1.21,0,0,0-.9.37,1.8,1.8,0,0,0-.42.78,4.56,4.56,0,0,0-.2,1.42,3.5,3.5,0,0,0,.29,1.54,1.17,1.17,0,0,0,1.85.4l.05-.06.13-.17c-.12.15-.1.13.06-.07l.13-.21a4,4,0,0,0,.33-.69A3.81,3.81,0,0,0,268.18,162.35Z"/><path class="cls-25" d="M289.62,173c.25-.27.57-.51.83-.77s.34-.43.55-.63l1.6-1.57c1.1-1.08,2.21-2.16,3.35-3.21,2-1.86,3.94-3.88,6.86-5,.48-.18,1,.3.57.58a29.67,29.67,0,0,0-3.31,2.47c-1,.93-1.95,2-2.89,2.94s-1.93,2-2.92,3c-.53.52-1.06,1.05-1.58,1.58-.22.21-.46.38-.69.57s-.47.56-.74.81C290.52,174.48,288.91,173.77,289.62,173Z"/><path class="cls-25" d="M293,179.43q1.68-.8,3.3-1.65c1.05-.56,2.08-1.14,3.08-1.75.44-.26.9-.53,1.31-.83.2-.14.35-.3.53-.45a3.64,3.64,0,0,1,.86-.36.43.43,0,0,1,.48.07c.88,1-.52,1.71-1.47,2.3-1.15.73-2.34,1.42-3.57,2.08s-2.44,1.23-3.71,1.79a9.36,9.36,0,0,1-2,.69c-.25.05-1.13.2-1.19-.14C290.52,180.39,292.27,179.78,293,179.43Z"/><path class="cls-25" d="M259.59,166.58l0,0a.45.45,0,0,1,.69-.13,4.81,4.81,0,0,0,.8.47l.92.59c.6.4,1.19.81,1.76,1.25s1.12.89,1.65,1.36c.27.25.55.49.81.75a1.62,1.62,0,0,1,.53.87c0,.21-.18.32-.35.31a1.94,1.94,0,0,1-.89-.55c-.26-.24-.51-.47-.78-.7-.54-.46-1.09-.91-1.67-1.33s-1.11-.81-1.69-1.19l-.93-.58a2.53,2.53,0,0,1-.84-.6A.46.46,0,0,1,259.59,166.58Z"/><path class="cls-25" d="M261.53,178l.16-.13a.7.7,0,0,1,.34-.12,1.68,1.68,0,0,1,.59.07l1.11.24c.36.08.73.13,1.1.21a2.21,2.21,0,0,1,1.08.36.25.25,0,0,1,0,.4,1.85,1.85,0,0,1-1.12.15c-.4,0-.81-.07-1.21-.12s-.76-.12-1.14-.2a1.49,1.49,0,0,1-.62-.22,1.1,1.1,0,0,1-.21-.22,2,2,0,0,1-.09-.22A.15.15,0,0,1,261.53,178Z"/><path class="cls-7" d="M275.05,167.09c11.92-.47,16.14,3.54,16.76,9.41s-2.29,13.12-14.32,13.38-15-6.63-14.45-11.06S264.23,167.51,275.05,167.09Z"/><path class="cls-25" d="M267.29,173.4a2.1,2.1,0,0,1,1.56-.1,35.88,35.88,0,0,0,7.6.53c1.38-.07,2.75-.18,4.11-.38.77-.12,1.52-.26,2.28-.41a11,11,0,0,1,2-.34.14.14,0,0,1,.09.25,12.22,12.22,0,0,1-3.44,1.25,34.29,34.29,0,0,1-3.63.73,30.2,30.2,0,0,1-7.42.1c-.61-.06-1.22-.14-1.82-.24s-1.22-.19-1.51-.69A.48.48,0,0,1,267.29,173.4Z"/><path class="cls-25" d="M268.24,183.34a.38.38,0,0,1,.33-.28,6,6,0,0,1,1.73.18c.66.11,1.32.2,2,.27a25.48,25.48,0,0,0,4.28.1,29.45,29.45,0,0,0,4.17-.58c.65-.13,1.3-.31,1.95-.48a3.6,3.6,0,0,1,1.79-.29s0,0,0,.05a3,3,0,0,1-1.58,1,21.67,21.67,0,0,1-2.11.69,24.18,24.18,0,0,1-4.63.76C275.22,184.79,267.77,185,268.24,183.34Z"/><path class="cls-6" d="M331.72,16.25a46.15,46.15,0,0,0-27.1,83.52c-.06.1-.13.19-.18.29-.71,1.17-1.39,2.36-2.08,3.53a19.61,19.61,0,0,0-2,3.48,2.27,2.27,0,0,0,2.12,3.11,6.49,6.49,0,0,0,2-.61l1.86-.69c1.24-.46,2.47-.92,3.73-1.33l3.75-1.26,1.78-.59a46.17,46.17,0,1,0,16.07-89.45Z"/><path class="cls-8" d="M314.06,47.29c-1.11-3-3.76-5.42-7.11-5.22-3.19.2-6.88,1.46-8.88,4.07s-2.73,6.41-2.61,9.66A9.86,9.86,0,0,0,300,64a9.32,9.32,0,0,0,5.12,1.37c1.53-.05,4.47-.44,5-2.15a.86.86,0,0,0-.6-1,3,3,0,0,0-1.84.41,9,9,0,0,1-2,.52,7.22,7.22,0,0,1-3.92-.59,7.54,7.54,0,0,1-4.27-6.07,14.51,14.51,0,0,1,1.48-8.3c1.41-2.48,4.33-3.48,7-3.9a4.75,4.75,0,0,1,4.28,1c1,1,1.59,2.2,3,2.75A.6.6,0,0,0,314.06,47.29Z"/><path class="cls-8" d="M353.8,61.34c2.7-1.74,6.27-2.07,8.82.11s4.61,5.31,4.63,8.6-1.67,6.76-3.73,9.28a9.86,9.86,0,0,1-8.59,3.79,9.22,9.22,0,0,1-4.91-2c-1.19-.95-3.3-3-2.7-4.73a.86.86,0,0,1,1.11-.48c.66.34.84.83,1.22,1.43A8.64,8.64,0,0,0,350.92,79a7.22,7.22,0,0,0,3.48,1.89,7.57,7.57,0,0,0,7.07-2.27,14.55,14.55,0,0,0,3.81-7.52c.37-2.84-1.35-5.39-3.24-7.34A4.76,4.76,0,0,0,358,62c-1.43.19-2.6.8-4.05.39A.6.6,0,0,1,353.8,61.34Z"/><path class="cls-7" d="M335,41.81c-9.88-2-23.72,0-28.19,12.3S314.2,76,325.84,79s25.72,2.68,29.08-7.83S350.67,44.94,335,41.81Z"/><path class="cls-8" d="M343.46,56.57a3.57,3.57,0,0,0-1.22,0c-.43,0-.87.06-1.3.07a28.54,28.54,0,0,1-9.84-1.4,24.82,24.82,0,0,1-5-2.22,17.84,17.84,0,0,1-2.05-1.42c-.34-.28-.67-.57-1-.88s-.52-.61-.88-.6a.26.26,0,0,0-.23.18c-.12.29.09.58.23.83a5.54,5.54,0,0,0,.68.93,10.27,10.27,0,0,0,1.69,1.54,19.63,19.63,0,0,0,4.19,2.24,29.39,29.39,0,0,0,9.83,2.2c.81,0,1.63.05,2.44,0,.41,0,.81,0,1.22-.08a3.33,3.33,0,0,0,1.3-.22C344.2,57.42,344.21,56.78,343.46,56.57Z"/><path class="cls-8" d="M344.83,69.18a1.78,1.78,0,0,0-1.49-.25c-.51.09-1,.19-1.53.25a26.48,26.48,0,0,1-3.21.21,28.11,28.11,0,0,1-6.33-.7,30.13,30.13,0,0,1-11.4-5.4,26.5,26.5,0,0,1-2.72-2.35c-.41-.4-.82-.82-1.22-1.24s-.71-.87-1.24-.91a.09.09,0,0,0-.07.06,1.56,1.56,0,0,0,.44,1.19,15.21,15.21,0,0,0,1.06,1.37,24,24,0,0,0,2.36,2.37,26.64,26.64,0,0,0,5.46,3.7,30,30,0,0,0,12.86,3.33,25.94,25.94,0,0,0,3.74-.15c.65-.07,1.29-.16,1.92-.28a1.75,1.75,0,0,0,1.45-.89A.23.23,0,0,0,344.83,69.18Z"/></g></g></svg>